<?xml version="1.0" encoding="UTF-8"?>
<svg id="Layer_1" data-name="Layer 1" xmlns="http://www.w3.org/2000/svg" viewBox="0 0 57.66 57.66">
  <defs>
    <style>
      .cls-1 {
        fill: #1a1a1b;
      }

      .cls-1, .cls-2, .cls-3 {
        stroke-width: 0px;
      }

      .cls-2 {
        fill: #b52527;
      }

      .cls-3 {
        fill: #fff;
      }
    </style>
  </defs>
  <rect class="cls-1" x="0" y="0" width="57.66" height="57.66" rx="9.02" ry="9.02"/>
  <g>
    <path class="cls-2" d="m29.92,24.35c-2.06,1.07-3.97,2.38-5.69,3.9L5.53,44.77l23.14-12.46c1.35-.73,2.61-1.58,3.77-2.56,5.17-4.34,19.99-16.8,19.68-16.78-.3.02-15.51,7.9-22.2,11.38Zm-.72,5.64c-.58.23-1.27.12-1.73-.29-.92-.81-.66-2.22.49-2.68.58-.23,1.27-.12,1.73.29.92.81.66,2.22-.49,2.68Z"/>
    <g>
      <path class="cls-3" d="m46.81,21.48l-6.08,5.04c.4,1.39.46,2.86.18,4.41-.53,2.92-2.12,5.2-4.75,6.82-2.64,1.62-5.58,2.16-8.82,1.61-1.33-.22-2.55-.61-3.66-1.14l-.29.19s-6.57,4.02-7.55,4.19c2.66,2.5,5.99,4.09,10,4.77,5.34.9,10.13-.12,14.37-3.06,4.24-2.94,6.82-6.99,7.77-12.17.7-3.85.33-7.42-1.12-10.69l-.05.03Z"/>
      <path class="cls-3" d="m42.09,14.99l-6.98,3.8c-1.22-.84-2.63-1.39-4.23-1.66-3.03-.51-5.78.16-8.26,2-2.48,1.84-4,4.33-4.57,7.46-.23,1.28-.28,2.52-.13,3.71l-.29.19s-6.15,4.6-6.65,5.43c-1.54-3.27-1.95-6.83-1.25-10.7.94-5.16,3.56-9.16,7.86-12.01,4.3-2.85,9.14-3.82,14.51-2.92,3.99.67,7.34,2.22,10.04,4.65l-.05.04Z"/>
    </g>
  </g>
</svg>