<?xml version="1.0" encoding="UTF-8"?>
<svg id="Layer_1" data-name="Layer 1" xmlns="http://www.w3.org/2000/svg" viewBox="0 0 116.35 94.2">
  <defs>
    <style>
      .cls-1 {
        fill: #b52527;
      }

      .cls-1, .cls-2 {
        stroke-width: 0px;
      }

      .cls-2 {
        fill: #fff;
      }
    </style>
  </defs>
  <path class="cls-1" d="m60.9,35.92c-5.14,2.67-9.91,5.94-14.2,9.73L0,86.91l57.78-31.13c3.36-1.81,6.52-3.95,9.42-6.38,12.91-10.83,49.93-41.95,49.14-41.89-.74.05-38.74,19.74-55.44,28.41Zm-1.81,14.08c-1.45.58-3.17.29-4.32-.73-2.29-2.02-1.65-5.55,1.22-6.7,1.45-.58,3.17-.29,4.32.73,2.3,2.02,1.65,5.56-1.22,6.7Z"/>
  <g>
    <path class="cls-2" d="m103.09,28.74l-15.18,12.59c1,3.48,1.15,7.15.45,11-1.33,7.3-5.29,12.98-11.87,17.03-6.59,4.05-13.93,5.39-22.03,4.03-3.32-.56-6.36-1.51-9.13-2.85l-.71.48s-16.39,10.03-18.85,10.47c6.64,6.25,14.97,10.22,24.98,11.91,13.34,2.25,25.3-.3,35.88-7.63,10.58-7.33,17.04-17.47,19.4-30.4,1.75-9.62.81-18.52-2.8-26.71l-.13.07Z"/>
    <path class="cls-2" d="m91.29,12.53l-17.43,9.5c-3.06-2.09-6.58-3.48-10.57-4.15-7.57-1.27-14.44.39-20.63,4.99-6.19,4.6-9.99,10.81-11.42,18.63-.58,3.21-.69,6.29-.33,9.26l-.71.48s-15.35,11.48-16.61,13.55c-3.84-8.15-4.87-17.06-3.11-26.73,2.35-12.88,8.89-22.87,19.64-29.98C40.84.99,52.92-1.44,66.32.82c9.97,1.68,18.32,5.55,25.08,11.62l-.12.09Z"/>
  </g>
</svg>